HIERARCHY
ROOT root
{
	OFFSET 0.000000 0.000000 0.000000
	CHANNELS 6 Xposition Yposition Zposition Zrotation Yrotation Xrotation
	JOINT lhip
	{
		OFFSET 0.058581 -0.082280 -0.017664
		CHANNELS 3 Zrotation Yrotation Xrotation
		JOINT lknee
		{
			OFFSET 0.043451 -0.386469 0.008037
			CHANNELS 3 Zrotation Yrotation Xrotation
			JOINT lankle
			{
				OFFSET -0.014790 -0.426874 -0.037428
				CHANNELS 3 Zrotation Yrotation Xrotation
				JOINT ltoe
				{
					OFFSET 0.041054 -0.060286 0.122042
					CHANNELS 3 Zrotation Yrotation Xrotation
					End Site
					{
						OFFSET 0.000000 0.000000 0.000000
					}
				}
			}
		}
	}
	JOINT rhip
	{
		OFFSET -0.060310 -0.090513 -0.013543
		CHANNELS 3 Zrotation Yrotation Xrotation
		JOINT rknee
		{
			OFFSET -0.043257 -0.383688 -0.004843
			CHANNELS 3 Zrotation Yrotation Xrotation
			JOINT rankle
			{
				OFFSET 0.019056 -0.420046 -0.034562
				CHANNELS 3 Zrotation Yrotation Xrotation
				JOINT rtoe
				{
					OFFSET -0.034840 -0.062106 0.130323
					CHANNELS 3 Zrotation Yrotation Xrotation
					End Site
					{
						OFFSET 0.000000 0.000000 0.000000
					}
				}
			}
		}
	}
	JOINT lowerback
	{
		OFFSET 0.004439 0.124404 -0.038385
		CHANNELS 3 Zrotation Yrotation Xrotation
		JOINT upperback
		{
			OFFSET 0.004488 0.137956 0.026820
			CHANNELS 3 Zrotation Yrotation Xrotation
			JOINT chest
			{
				OFFSET -0.002265 0.056032 0.002855
				CHANNELS 3 Zrotation Yrotation Xrotation
				JOINT lowerneck
				{
					OFFSET -0.013390 0.211636 -0.033468
					CHANNELS 3 Zrotation Yrotation Xrotation
					JOINT upperneck
					{
						OFFSET 0.010113 0.088937 0.050410
						CHANNELS 3 Zrotation Yrotation Xrotation
						End Site
						{
							OFFSET 0.000000 0.000000 0.000000
						}
					}
				}
				JOINT lclavicle
				{
					OFFSET 0.071702 0.114000 -0.018898
					CHANNELS 3 Zrotation Yrotation Xrotation
					JOINT lshoulder
					{
						OFFSET 0.122921 0.045205 -0.019046
						CHANNELS 3 Zrotation Yrotation Xrotation
						JOINT lelbow
						{
							OFFSET 0.255332 -0.015649 -0.022946
							CHANNELS 3 Zrotation Yrotation Xrotation
							JOINT lwrist
							{
								OFFSET 0.265709 0.012698 -0.007375
								CHANNELS 3 Zrotation Yrotation Xrotation
								End Site
								{
									OFFSET 0.000000 0.000000 0.000000
								}
							}
						}
					}
				}
				JOINT rclavicle
				{
					OFFSET -0.082954 0.112472 -0.023707
					CHANNELS 3 Zrotation Yrotation Xrotation
					JOINT rshoulder
					{
						OFFSET -0.113228 0.046853 -0.008472
						CHANNELS 3 Zrotation Yrotation Xrotation
						JOINT relbow
						{
							OFFSET -0.260127 -0.014369 -0.031269
							CHANNELS 3 Zrotation Yrotation Xrotation
							JOINT rwrist
							{
								OFFSET -0.269108 0.006794 -0.006027
								CHANNELS 3 Zrotation Yrotation Xrotation
								End Site
								{
									OFFSET 0.000000 0.000000 0.000000
								}
							}
						}
					}
				}
			}
		}
	}
}
MOTION
Frames: 11
Frame Time: 0.033333
0.127560 2.156972 0.911986 -6.723642 -1.610666 105.284114 5.136013 -10.825569 -54.159072 -4.110062 17.985502 44.967160 8.675214 15.508117 -27.700203 0.000000 -0.000000 0.000000 -2.748052 -4.448833 6.101091 4.395137 1.182731 26.952898 11.128540 -5.359454 -3.597684 0.000000 -0.000000 0.000000 -6.862128 12.803099 16.372479 1.987767 -3.208103 -4.333136 2.163029 0.491859 0.163249 -0.263623 -0.722210 -10.342086 -1.767502 -1.576393 1.547402 -21.166789 8.162175 0.381920 -56.289750 1.536103 6.413187 15.914184 -49.973823 -4.493350 24.289569 -8.185644 -9.120397 21.050562 3.731378 -4.429414 50.326294 15.249719 18.249528 -14.113523 51.464452 -7.689578 -10.944831 7.998675 -8.361836 
0.127172 2.102863 0.917265 -5.000882 -2.090298 106.201325 3.530187 -12.967285 -50.481967 -4.454311 17.161873 44.038207 10.770470 17.197586 -29.236198 0.000000 -0.000000 0.000000 -4.191822 -4.220847 -0.592071 5.755847 -1.127446 40.348712 13.524022 -6.939469 5.348668 0.000000 -0.000000 0.000000 -7.985105 11.547441 15.756888 2.578119 -3.361234 -3.686515 2.072242 -0.361660 0.016177 0.951408 -1.620826 -11.766491 -1.078799 -0.179662 1.683700 -22.615681 7.056350 0.094695 -55.020910 -1.363839 7.250095 16.152992 -50.188445 -7.073592 26.672943 -9.196384 -7.012731 21.988687 2.703453 -4.856494 51.263873 13.763451 20.235340 -15.316396 50.650777 -11.075329 -12.201395 7.526531 -6.940444 
0.126934 2.048560 0.921631 -2.910556 -2.377885 106.566297 1.086411 -14.045169 -45.576860 -5.440464 14.310853 42.652786 11.691212 18.826433 -31.233540 0.000000 -0.000000 0.000000 -5.040937 -3.368159 -8.916440 5.873332 -5.131753 55.122015 11.235949 -10.891255 6.543277 0.000000 -0.000000 0.000000 -8.639792 9.673439 15.305741 3.145588 -3.063400 -2.271668 2.029633 -1.339754 -0.733675 2.084286 -2.239604 -11.525522 -0.163965 0.884910 0.589231 -23.430213 4.635481 0.749655 -54.196826 -5.134713 8.588225 18.539385 -52.045428 -11.081143 26.412094 -8.815731 -6.237073 22.551809 1.974457 -4.702617 51.892277 11.298609 21.000176 -14.931037 49.874381 -11.940652 -7.754942 7.281049 -6.263777 
0.125921 1.993962 0.925434 -0.672030 -2.441637 106.005601 -1.506259 -13.767041 -39.064015 -6.931386 10.321682 40.754913 11.784306 19.973299 -32.533286 0.000000 -0.000000 0.000000 -6.383207 -3.068364 -17.243725 2.469051 -10.681026 68.001085 5.782909 -17.076064 0.791485 0.000000 -0.000000 0.000000 -8.330194 6.946052 17.448549 3.053260 -2.663542 -3.098783 2.127425 -2.423666 -0.784891 2.950861 -2.536382 -11.809597 0.987439 2.045048 -0.202107 -24.052360 1.873751 0.500028 -52.653811 -9.015723 9.571247 20.534528 -55.487827 -13.172896 26.521959 -9.110226 -6.671456 22.616784 2.018335 -4.638013 52.670045 7.680724 21.436310 -13.760148 48.474927 -11.248115 -6.933715 7.090657 -5.982356 
0.124486 1.939430 0.929654 1.384368 -2.173554 104.925206 -3.796747 -11.606392 -31.158781 -8.304987 5.000592 37.504078 10.081000 19.965704 -33.263485 0.000000 -0.000000 0.000000 -7.829322 -3.417327 -26.069081 -0.353895 -13.523684 77.064297 6.184872 -13.045807 -8.245205 0.000000 -0.000000 0.000000 -7.328315 4.336320 21.455465 2.541968 -2.473521 -6.169531 2.428186 -3.564758 -0.153218 3.276468 -0.382803 -11.539631 1.945314 1.890303 -1.384254 -23.453514 -2.534499 0.273777 -52.262254 -12.154272 10.903267 28.378400 -59.055589 -20.004768 25.401833 -9.499137 -6.640198 22.105110 2.160467 -4.508102 53.251472 3.683942 19.514645 -10.065326 47.182117 -6.789654 -6.496923 7.295862 -5.707891 
0.121087 1.883393 0.934578 2.714850 -1.562188 104.145553 -4.602878 -7.217033 -22.797750 -9.962162 -1.137249 32.668043 8.063169 19.195265 -32.696349 0.000000 -0.000000 0.000000 -8.827839 -3.635986 -36.247860 -2.290762 -15.437622 81.723830 7.426796 -9.487028 -15.879987 0.000000 -0.000000 0.000000 -6.429099 1.381381 24.489071 1.930528 -1.829374 -9.068059 2.727390 -4.516322 0.768318 3.164771 1.965204 -11.366754 2.799034 1.874975 -2.410220 -21.691592 -5.864643 0.152244 -52.626251 -16.061778 11.864297 39.270602 -62.686068 -28.041700 23.474294 -9.236835 -7.629665 20.741198 1.845590 -3.811233 54.379777 0.310408 17.387240 -6.730245 45.761974 -1.897756 -5.708563 7.668842 -6.059919 
0.116049 1.824914 0.940225 4.182832 -0.475264 104.038723 -3.108970 -2.171781 -14.620350 -11.007570 -7.201426 27.073451 5.548488 17.164195 -30.904734 0.000000 -0.000000 0.000000 -8.773853 -3.566768 -46.585497 -3.558118 -17.711663 79.954617 8.407160 -9.848920 -19.209932 0.000000 -0.000000 0.000000 -5.208330 -2.443283 25.603114 1.434157 -0.744588 -10.981222 2.857135 -5.101625 1.663868 2.571295 3.807551 -11.718146 3.407797 2.312691 -2.429393 -19.786836 -6.854110 -0.650769 -53.737273 -20.906111 12.733465 50.055593 -66.416699 -34.527865 23.624944 -8.902544 -8.427747 19.292978 0.467602 -3.469204 54.991570 -2.176039 15.861930 -3.884763 44.160781 2.505489 -4.765284 8.616777 -6.736722 
0.111108 1.760845 0.948206 5.528254 0.564039 104.639236 -0.386390 3.431287 -6.192472 -10.731989 -14.009572 19.808987 1.660747 13.670073 -27.649267 0.000000 -0.000000 0.000000 -8.893340 -2.829062 -55.051692 -3.706843 -19.930642 72.858651 8.674576 -9.789544 -22.072078 0.000000 -0.000000 0.000000 -3.679275 -6.190043 25.016452 0.945846 0.194472 -14.772044 2.975428 -5.580111 4.172396 1.249269 5.270779 -9.873539 3.470554 3.002976 -2.711488 -19.028961 -7.008025 -0.450959 -54.600398 -24.294576 13.598761 62.532062 -69.231525 -44.308339 24.288227 -8.587589 -10.294427 18.561690 -1.088329 -2.751285 53.717584 -4.241520 14.334946 -0.265929 43.030124 6.916892 -6.192176 9.144874 -7.506063 
0.105460 1.693657 0.959671 6.236506 2.098607 105.091526 3.449538 7.219894 2.211265 -8.539114 -18.285098 11.850567 -2.387627 10.675578 -21.373144 0.000000 -0.000000 0.000000 -8.590461 -0.657203 -59.347823 -2.880371 -21.699754 59.281118 9.030731 -8.382461 -23.440095 0.000000 -0.000000 0.000000 -1.650817 -9.247044 23.439069 0.865858 1.292094 -14.541983 3.457692 -5.991567 3.958084 -0.402050 6.212056 -10.223282 2.233414 4.441880 -1.532582 -18.175264 -5.432381 -1.355825 -56.221021 -25.358697 14.956285 75.083881 -72.666689 -55.159956 25.793322 -7.548632 -13.838436 17.694721 -1.960498 -2.237718 51.698198 -5.040002 14.071611 1.958932 42.310916 9.742113 -8.144528 10.200093 -8.580607 
0.098568 1.621276 0.972098 6.100018 3.862051 105.296425 7.161305 8.994270 8.257217 -6.645151 -17.049548 8.188844 -6.011192 8.760403 -11.413293 0.000000 -0.000000 0.000000 -6.959156 3.313600 -59.481224 -1.443729 -21.049817 44.248825 7.148269 -7.948853 -23.188833 0.000000 -0.000000 0.000000 0.335828 -11.507454 21.705795 1.005731 2.175167 -12.751878 3.925685 -5.622243 1.927025 -1.849653 6.434733 -8.728765 1.072847 6.173455 -1.827797 -19.262792 -3.763466 -1.215258 -56.124433 -23.540349 15.244699 90.958450 -75.544667 -69.450645 23.864015 -7.515336 -14.963646 17.946618 -1.513506 -0.624048 49.064631 -4.467447 13.649875 3.536385 41.527825 10.966864 -10.536584 10.260910 -10.245739 
0.092396 1.543740 0.980373 5.049823 4.008103 104.579469 7.510869 7.894192 10.889225 -6.151179 -12.281215 11.490578 -8.605817 9.870348 0.963013 0.000000 -0.000000 0.000000 -6.033049 6.662180 -57.019833 0.116692 -19.620380 37.953500 6.192813 -8.141945 -21.494122 0.000000 -0.000000 0.000000 0.549433 -12.290334 20.132491 1.380292 2.596104 -9.592160 3.661263 -4.693929 -0.996879 -2.373169 6.564368 -6.572135 -0.151528 7.150701 -2.695709 -21.203458 -1.533410 -0.430779 -54.721580 -20.085916 15.804757 102.751603 -77.674512 -79.978180 21.105809 -8.434482 -15.507973 19.907689 -0.658003 0.607419 46.472221 -2.158117 13.972247 3.689954 40.813643 8.802485 -12.322815 10.127208 -10.777031 
